<?xml version="1.0" encoding="utf-8"?>
<!-- Generator: Adobe Illustrator 19.2.0, SVG Export Plug-In . SVG Version: 6.00 Build 0)  -->
<svg version="1.1" id="Layer_1" xmlns="http://www.w3.org/2000/svg" xmlns:xlink="http://www.w3.org/1999/xlink" x="0px" y="0px"
	 viewBox="0 0 300 300" style="enable-background:new 0 0 300 300;" xml:space="preserve">
<style type="text/css">
	.st0{opacity:0.2;}
	.st1{fill:url(#SVGID_1_);}
	.st2{fill:#FFFFFF;}
</style>
<g>
	<path class="st0" d="M217.4,30.9L83.2,63c-26.8,0-48.7,21.9-48.7,48.7L3.2,187.5c0,26.8,53.2,80.7,80,80.7h165.5
		c26.8,0,48.7-21.9,48.7-48.7V111.7C297.4,84.9,244.1,30.9,217.4,30.9"/>
	
		<linearGradient id="SVGID_1_" gradientUnits="userSpaceOnUse" x1="-2.7988" y1="299.694" x2="3.2035" y2="299.694" gradientTransform="matrix(43.8 0 0 43.8 125.7888 -12993.0977)">
		<stop  offset="0" style="stop-color:#2FBAA9"/>
		<stop  offset="1" style="stop-color:#26A69A"/>
	</linearGradient>
	<path class="st1" d="M217.4,236.1H51.9c-26.8,0-48.7-21.9-48.7-48.7V79.6c0-26.8,21.9-48.7,48.7-48.7h165.5
		c26.8,0,48.7,21.9,48.7,48.7v107.9C266,214.2,244.1,236.1,217.4,236.1z"/>
	<path class="st2" d="M136.6,131.7v53.9H151v-39.4c1-1.4,2.2-2.4,3.7-3.2s3.2-1.1,5.2-1.1c2.7,0,4.6,0.8,6,2.5c1.3,1.6,2,4.5,2,8.5
		v32.7h14.5v-35.5v-1.4c0-0.4,0-1,0-1.6c0.9-1.6,2.1-2.9,3.6-3.8c1.5-0.9,3.3-1.4,5.4-1.4c2.6,0,4.6,0.8,5.9,2.4s2,4.4,2,8.5v32.7
		h14.5V153c0-7.5-1.5-13.1-4.6-16.8s-7.3-5.5-12.6-5.5c-3.6,0-6.7,0.8-9.4,2.4s-4.8,3.9-6.5,6.8c-1.3-3.1-3.1-5.4-5.6-6.9
		s-5.4-2.3-8.9-2.3c-3.4,0-6.4,0.7-9,2.1c-2.6,1.4-4.8,3.4-6.5,6l-0.6-7.1H136.6z M95.2,174.2c-1.2-1.1-1.8-2.5-1.8-4.3
		c0-2.2,0.8-4.1,2.4-5.6s3.9-2.3,7-2.3h8.1v7.6c-0.7,1.7-2,3.1-4,4.4s-4.3,1.9-6.8,1.9C98,175.9,96.4,175.3,95.2,174.2z
		 M127.9,185.6c-0.8-2.2-1.4-4.4-1.8-6.6c-0.4-2.2-0.6-4.6-0.6-7.1v-22.3c0-6-2-10.7-6-14s-9.2-4.9-15.7-4.9c-6.8,0-12.3,1.7-16.5,5
		s-6.2,7.2-5.9,11.8v0.3h14c0-2,0.6-3.6,1.9-4.8c1.3-1.1,3.1-1.7,5.5-1.7c2.7,0,4.7,0.7,6,2.1s2,3.4,2,6v4.3h-8.1
		c-7.8,0-13.7,1.5-17.8,4.4s-6.1,7-6.1,12.3c0,5,1.5,9,4.6,11.9s7.4,4.4,13,4.4c3.4,0,6.3-0.9,8.7-2.6c2.4-1.7,4.4-3.9,5.9-6.5
		c0.2,1.4,0.4,2.8,0.8,4.2s0.8,2.7,1.4,3.9L127.9,185.6L127.9,185.6z M68.2,172.8H53.7v12.8h14.5V172.8z"/>
</g>
</svg>
