<?xml version="1.0" encoding="utf-8"?>
<!-- Generator: Adobe Illustrator 19.2.0, SVG Export Plug-In . SVG Version: 6.00 Build 0)  -->
<svg version="1.1" id="Layer_1" xmlns="http://www.w3.org/2000/svg" xmlns:xlink="http://www.w3.org/1999/xlink" x="0px" y="0px"
	 viewBox="0 0 300 300" style="enable-background:new 0 0 300 300;" xml:space="preserve">
<style type="text/css">
	.st0{opacity:0.2;enable-background:new    ;}
	.st1{fill:#FFFFFF;}
	.st2{fill:#EBEBEB;}
	.st3{fill:#E1E1E1;}
	.st4{fill:#FCDFDB;}
	.st5{fill:#F49687;}
	.st6{fill:#F48687;}
	.st7{fill:#FFC117;}
	.st8{fill:#34B900;}
	.st9{fill:#F6AB9F;}
	.st10{fill:#E27064;}
	.st11{fill:#F8C0B7;}
</style>
<g>
	<path class="st0" d="M285.2,14.4H11.4c-4.6,0-8.3,3.8-8.3,8.4v251.6c0,4.6,3.8,8.4,8.3,8.4h273.8c4.5,0,8.2-3.7,8.3-8.4V22.8
		C293.5,18.1,289.7,14.4,285.2,14.4"/>
	<path class="st1" d="M285.2,280.5H11.4c-4.5,0-8.3-3.7-8.3-8.3v-249c0-4.5,3.7-8.3,8.3-8.3h273.8c4.5,0,8.3,3.7,8.3,8.3v249
		C293.4,276.8,289.7,280.5,285.2,280.5"/>
	<path class="st2" d="M291.3,17.7c0.4,0.4,0.7,0.9,1,1.4C292.1,18.6,291.7,18.2,291.3,17.7"/>
	<path class="st3" d="M292.4,19.1c0.7,1.2,1.1,2.6,1.1,4.1v11.2h0.1v-11C293.5,21.8,293.1,20.4,292.4,19.1
		C292.4,19.2,292.4,19.1,292.4,19.1"/>
	<path class="st2" d="M285.1,14.9H11.5c-4.6,0-8.4,3.8-8.4,8.4v11.1h290.3V23.2c0-1.5-0.4-2.9-1.1-4.1c-0.3-0.5-0.6-1-1-1.4
		C289.8,16,287.6,14.9,285.1,14.9"/>
	<path class="st4" d="M267.3,50H28.9c-0.4,0-0.7,0.3-0.7,0.7v103.1c0,0.4,0.3,0.7,0.7,0.7h238.4c0.4,0,0.7-0.3,0.7-0.7v-103
		C268.1,50.3,267.7,50,267.3,50"/>
	<polygon class="st5" points="162.3,86.6 221,154.5 103.6,154.6 	"/>
	<polygon class="st5" points="106.9,114.6 141.4,154.5 72.3,154.6 	"/>
	<circle class="st6" cx="13.4" cy="24.7" r="3.6"/>
	<circle class="st7" cx="24.2" cy="24.7" r="3.6"/>
	<circle class="st8" cx="35" cy="24.7" r="3.6"/>
	<path class="st9" d="M160.1,169.2H30.4c-1.2,0-2.2,1-2.2,2.2v7.5c0,1.2,1,2.2,2.2,2.2h129.7c1.2,0,2.2-1,2.2-2.2v-7.5
		C162.3,170.2,161.3,169.2,160.1,169.2"/>
	<path class="st9" d="M139.2,191.2H30.4c-1.2,0-2.2,1-2.2,2.2v7.5c0,1.2,1,2.2,2.2,2.2h108.8c1.2,0,2.2-1,2.2-2.2v-7.5
		C141.4,192.2,140.4,191.2,139.2,191.2"/>
	<path class="st9" d="M120.1,212.8H30.3c-1.2,0-2.2,1-2.2,2.2v7.5c0,1.2,1,2.2,2.2,2.2H120c1.2,0,2.2-1,2.2-2.2V215
		C122.3,213.8,121.3,212.8,120.1,212.8"/>
	<path class="st10" d="M119.4,251.3H61c-1.6,0-2.9-1.3-2.9-2.9v-11.2c0-1.6,1.3-2.9,2.9-2.9h58.4c1.6,0,2.9,1.3,2.9,2.9v11.2
		C122.3,250,121,251.3,119.4,251.3z"/>
	<path class="st11" d="M204.9,170h-17.1c-1.2,0-2.2,1-2.2,2.2v15.4c0,1.2,1,2.2,2.2,2.2h17.1c1.2,0,2.2-1,2.2-2.2v-15.4
		C207.1,171,206.1,170,204.9,170"/>
	<path class="st11" d="M204.9,200.4h-17.1c-1.2,0-2.2,1-2.2,2.2V218c0,1.2,1,2.2,2.2,2.2h17.1c1.2,0,2.2-1,2.2-2.2v-15.4
		C207.1,201.4,206.1,200.4,204.9,200.4"/>
	<path class="st11" d="M204.9,230.3h-17.1c-1.2,0-2.2,1-2.2,2.2v15.4c0,1.2,1,2.2,2.2,2.2h17.1c1.2,0,2.2-1,2.2-2.2v-15.4
		C207.1,231.2,206.1,230.3,204.9,230.3"/>
	<path class="st11" d="M235.4,230.3h-17.1c-1.2,0-2.2,1-2.2,2.2v15.4c0,1.2,1,2.2,2.2,2.2h17.1c1.2,0,2.2-1,2.2-2.2v-15.4
		C237.6,231.2,236.6,230.3,235.4,230.3"/>
	<path class="st11" d="M265.9,230.3h-17.1c-1.2,0-2.2,1-2.2,2.2v15.4c0,1.2,1,2.2,2.2,2.2h17.1c1.2,0,2.2-1,2.2-2.2v-15.4
		C268.1,231.2,267.1,230.3,265.9,230.3"/>
	<path class="st11" d="M235.4,200.4h-17.1c-1.2,0-2.2,1-2.2,2.2V218c0,1.2,1,2.2,2.2,2.2h17.1c1.2,0,2.2-1,2.2-2.2v-15.4
		C237.6,201.4,236.6,200.4,235.4,200.4"/>
	<path class="st11" d="M265.9,200.4h-17.1c-1.2,0-2.2,1-2.2,2.2V218c0,1.2,1,2.2,2.2,2.2h17.1c1.2,0,2.2-1,2.2-2.2v-15.4
		C268.1,201.4,267.1,200.4,265.9,200.4"/>
	<path class="st11" d="M235.4,170h-17.1c-1.2,0-2.2,1-2.2,2.2v15.4c0,1.2,1,2.2,2.2,2.2h17.1c1.2,0,2.2-1,2.2-2.2v-15.4
		C237.6,171,236.6,170,235.4,170"/>
	<path class="st11" d="M265.9,170h-17.1c-1.2,0-2.2,1-2.2,2.2v15.4c0,1.2,1,2.2,2.2,2.2h17.1c1.2,0,2.2-1,2.2-2.2v-15.4
		C268.1,171,267.1,170,265.9,170"/>
</g>
</svg>
