<?xml version="1.0" encoding="utf-8"?>
<!-- Generator: Adobe Illustrator 19.2.0, SVG Export Plug-In . SVG Version: 6.00 Build 0)  -->
<svg version="1.1" id="Layer_1" xmlns="http://www.w3.org/2000/svg" xmlns:xlink="http://www.w3.org/1999/xlink" x="0px" y="0px"
	 viewBox="0 0 300 300" style="enable-background:new 0 0 300 300;" xml:space="preserve">
<style type="text/css">
	.st0{fill:#4894D0;}
	.st1{fill:#FFFFFF;}
	.st2{fill:#ACAEB3;}
	.st3{fill:#C3C3C6;}
	.st4{fill:#3B82B3;}
</style>
<g>
	<g>
		<g>
			<g>
				<circle class="st0" cx="150.4" cy="149.2" r="138.4"/>
			</g>
		</g>
		<g>
			<g>
				<polygon class="st1" points="71.2,153.9 220.3,99.1 109.9,168.5 				"/>
			</g>
			<g>
				<polygon class="st2" points="109.9,168.5 116.2,208.6 220.3,99.1 				"/>
			</g>
			<g>
				<polygon class="st3" points="131.4,176.2 116.2,208.6 146,178.2 				"/>
			</g>
			<g>
				<polygon class="st1" points="220.3,99.1 131.4,176.2 172.6,191.7 				"/>
			</g>
		</g>
	</g>
	<g>
		<g>
			<polygon class="st4" points="71.2,153.9 114.4,197.1 109.9,168.5 			"/>
		</g>
		<g>
			<path class="st4" d="M223,101.8l-2.7-2.7l-5.8,11.2l-41.9,81.4l-28.7-10.8l-0.4-0.2l-22.5,23l-4.8,4.9l73.4,73.4
				c2.5-0.7,4.9-1.5,7.3-2.4c48.3-17.2,84.2-60.6,90.8-113L223,101.8z"/>
		</g>
	</g>
</g>
</svg>
